<svg id="wave" style="transform:rotate(0deg); transition: 0.3s" viewBox="0 0 1440 490" version="1.1" xmlns="http://www.w3.org/2000/svg"><defs><linearGradient id="sw-gradient-0" x1="0" x2="0" y1="1" y2="0"><stop stop-color="rgba(243, 106, 62, 1)" offset="0%"></stop><stop stop-color="rgba(255, 179, 11, 1)" offset="100%"></stop></linearGradient></defs><path style="transform:translate(0, 0px); opacity:1" fill="url(#sw-gradient-0)" d="M0,49L80,65.3C160,82,320,114,480,163.3C640,212,800,278,960,253.2C1120,229,1280,114,1440,89.8C1600,65,1760,131,1920,204.2C2080,278,2240,359,2400,400.2C2560,441,2720,441,2880,400.2C3040,359,3200,278,3360,277.7C3520,278,3680,359,3840,400.2C4000,441,4160,441,4320,424.7C4480,408,4640,376,4800,302.2C4960,229,5120,114,5280,98C5440,82,5600,163,5760,204.2C5920,245,6080,245,6240,269.5C6400,294,6560,343,6720,351.2C6880,359,7040,327,7200,310.3C7360,294,7520,294,7680,318.5C7840,343,8000,392,8160,416.5C8320,441,8480,441,8640,424.7C8800,408,8960,376,9120,351.2C9280,327,9440,310,9600,277.7C9760,245,9920,196,10080,187.8C10240,180,10400,212,10560,220.5C10720,229,10880,212,11040,220.5C11200,229,11360,261,11440,277.7L11520,294L11520,490L11440,490C11360,490,11200,490,11040,490C10880,490,10720,490,10560,490C10400,490,10240,490,10080,490C9920,490,9760,490,9600,490C9440,490,9280,490,9120,490C8960,490,8800,490,8640,490C8480,490,8320,490,8160,490C8000,490,7840,490,7680,490C7520,490,7360,490,7200,490C7040,490,6880,490,6720,490C6560,490,6400,490,6240,490C6080,490,5920,490,5760,490C5600,490,5440,490,5280,490C5120,490,4960,490,4800,490C4640,490,4480,490,4320,490C4160,490,4000,490,3840,490C3680,490,3520,490,3360,490C3200,490,3040,490,2880,490C2720,490,2560,490,2400,490C2240,490,2080,490,1920,490C1760,490,1600,490,1440,490C1280,490,1120,490,960,490C800,490,640,490,480,490C320,490,160,490,80,490L0,490Z"></path></svg>